<?xml version="1.0" encoding="UTF-8" standalone="no"?>
<svg
   xmlns:dc="http://purl.org/dc/elements/1.1/"
   xmlns:cc="http://creativecommons.org/ns#"
   xmlns:rdf="http://www.w3.org/1999/02/22-rdf-syntax-ns#"
   xmlns:svg="http://www.w3.org/2000/svg"
   xmlns="http://www.w3.org/2000/svg"
   xmlns:sodipodi="http://sodipodi.sourceforge.net/DTD/sodipodi-0.dtd"
   xmlns:inkscape="http://www.inkscape.org/namespaces/inkscape"
   version="1.1"
   x="0px"
   y="0px"
   viewBox="0 0 128 128"
   enable-background="new 0 0 139 139"
   xml:space="preserve"
   id="svg10"
   sodipodi:docname="noun_396887_cc.svg"
   width="128"
   height="128"
   inkscape:version="0.92.0 r"><metadata
     id="metadata16"><rdf:RDF><cc:Work
         rdf:about=""><dc:format>image/svg+xml</dc:format><dc:type
           rdf:resource="http://purl.org/dc/dcmitype/StillImage" /><dc:title></dc:title></cc:Work></rdf:RDF></metadata><defs
     id="defs14" /><sodipodi:namedview
     pagecolor="#ffffff"
     bordercolor="#666666"
     borderopacity="1"
     objecttolerance="10"
     gridtolerance="10"
     guidetolerance="10"
     inkscape:pageopacity="0"
     inkscape:pageshadow="2"
     inkscape:window-width="1920"
     inkscape:window-height="1016"
     id="namedview12"
     showgrid="false"
     fit-margin-top="0"
     fit-margin-left="0"
     fit-margin-right="0"
     fit-margin-bottom="0"
     inkscape:zoom="2.7165468"
     inkscape:cx="53.062987"
     inkscape:cy="19.881258"
     inkscape:window-x="0"
     inkscape:window-y="27"
     inkscape:window-maximized="1"
     inkscape:current-layer="svg10" /><path
     d="M 63.999,3.1655006 C 30.456,3.1655006 3.166,30.4555 3.166,63.9985 c 0,33.544999 27.29,60.836 60.833,60.836 33.545,0 60.835,-27.291001 60.835,-60.836 0,-33.543 -27.29,-60.8329994 -60.835,-60.8329994 z m 0,115.6699994 c -30.235,0 -54.833,-24.6 -54.833,-54.836 0,-30.235 24.598,-54.8329997 54.833,-54.8329997 30.236,0 54.835,24.5979997 54.835,54.8329997 0,30.236 -24.599,54.836 -54.835,54.836 z"
     id="path2"
     inkscape:connector-curvature="0" /><path
     d="m 29.036,43.790501 0.087,2.074 c 0.092,2.173 2.612,53.224999 34.877,53.224999 32.264,0 34.785,-51.051999 34.876,-53.224999 l 0.088,-2.074 -34.965,-14.88 z M 64,93.089501 v -28.957 h 25.968 c -3.395,13.325 -10.642,28.957 -25.968,28.957 z m 0,-28.961 H 38.044 c -1.783,-6.985 -2.507,-13.335 -2.779,-16.468 L 64,35.430501 Z"
     id="path4"
     inkscape:connector-curvature="0" /></svg>